<svg height="512" viewBox="0 0 64 64" width="512" xmlns="http://www.w3.org/2000/svg"><g id="Network-Connection"><g fill="#bddbff"><path d="m47 45.66v.34l-.16.16c.06-.17.11-.33.16-.5z"/><path d="m45.95 15.42a28.851 28.851 0 0 0 6.04-4.42 28.872 28.872 0 0 1 9.01 21h-12a44.275 44.275 0 0 0 -3.05-16.58z"/><path d="m32.62 3.02a28.715 28.715 0 0 1 19.37 7.98 28.851 28.851 0 0 1 -6.04 4.42c-2.96-7.24-7.81-12.06-13.33-12.4z"/><path d="m48.98 33.26a2 2 0 0 1 1.02 1.74v1l-1 2-.33-.22c.17-1.47.28-2.98.31-4.52z"/><path d="m49 32c0 .42-.01.84-.02 1.26a2 2 0 0 1 1.02 1.74v1l-1 2v2a3.986 3.986 0 0 1 -1.25 2.9 3.412 3.412 0 0 1 -.75.56v2.54a6 6 0 0 1 6 5.99 28.82 28.82 0 0 0 8-19.99z"/><path d="m45.95 15.42a44.275 44.275 0 0 1 3.05 16.58h-12v-1a2.006 2.006 0 0 0 -2-2h-3v-10a28.708 28.708 0 0 0 13.95-3.58z"/><path d="m47 46-.16.16-1.84 1.84-2-2a5.956 5.956 0 0 0 -2.12.39 5.325 5.325 0 0 0 -1.54.87 5.991 5.991 0 0 1 .66 2.74v11h10v-4h3v-5.01a6 6 0 0 0 -6-5.99z"/><path d="m40 59.5v.38a.142.142 0 0 1 -.06.02 1.336 1.336 0 0 0 .06-.4z"/><path d="m40 35-1-2h9a1.914 1.914 0 0 1 .98.26c-.03 1.54-.14 3.05-.31 4.52l-2.67-1.78-2 2h-3l-1-1z"/><path d="m39.94 59.9a.142.142 0 0 0 .06-.02v1.12h-1.5a1.482 1.482 0 0 0 1.44-1.1z"/><path d="m37 32v1l-1 2v3a3.98 3.98 0 0 1 -2 3.46v2.54a6.073 6.073 0 0 1 5.34 3.26 5.325 5.325 0 0 1 1.54-.87 5.956 5.956 0 0 1 2.12-.39v-2.54a3.98 3.98 0 0 1 -2-3.46v-2l-1-1v-2l-1-2h9a1.914 1.914 0 0 1 .98.26c.01-.42.02-.84.02-1.26z"/><path d="m37 32h-5v-3h3a2.006 2.006 0 0 1 2 2z"/><path d="m32 32h5v1l-1 2-3-2-1 1z"/><path d="m32.62 3.02c5.52.34 10.37 5.16 13.33 12.4a28.708 28.708 0 0 1 -13.95 3.58v-16c.21 0 .41.01.62.02z"/><path d="m32 45c.32 0 .65.01.97.03l-.97.97z"/><path d="m32 19a28.708 28.708 0 0 1 -13.95-3.58c2.96-7.24 7.81-12.06 13.33-12.4.21-.01.41-.02.62-.02z"/><path d="m32 45v1l-.97-.97c.32-.02.65-.03.97-.03z"/><path d="m28 35-1-1v-2h5v2l-1 1z"/><path d="m27 32-1-3h6v3z"/><path d="m39.34 47.26a6.073 6.073 0 0 0 -5.34-3.26l-1.03 1.03-.97.97-.97-.97-1.03-1.03a6.073 6.073 0 0 0 -5.34 3.26 5.991 5.991 0 0 0 -.66 2.74v7h3v2.73a.035.035 0 0 0 -.02-.01 1.362 1.362 0 0 1 -.37.77 1.445 1.445 0 0 1 -1.11.51h13a1.445 1.445 0 0 1 -1.11-.51 1.362 1.362 0 0 1 -.37-.77.035.035 0 0 0 -.02.01v-2.73h3v-7a5.991 5.991 0 0 0 -.66-2.74z"/><path d="m15 32a44.275 44.275 0 0 1 3.05-16.58 28.708 28.708 0 0 0 13.95 3.58v10h-6l1 3z"/><path d="m12.01 11a28.851 28.851 0 0 0 6.04 4.42 44.275 44.275 0 0 0 -3.05 16.58h-12a28.872 28.872 0 0 1 9.01-21z"/><path d="m17 45.66c.05.17.1.33.16.5l-.16-.16z"/><path d="m16.25 42.9a3.986 3.986 0 0 1 -1.25-2.9v-2l-1-1v-2l-1-2h2.01c-.01-.33-.01-.66-.01-1h-12a28.82 28.82 0 0 0 8 19.99 6 6 0 0 1 6-5.99v-2.54a3.412 3.412 0 0 1 -.75-.56z"/><path d="m15.01 33h6.99a2.006 2.006 0 0 1 2 2v1l-1 2-3-2-2 2h-2.64a47.642 47.642 0 0 1 -.35-5z"/><path d="m28 38v-3l-1-1v-2h-12c0 .34 0 .67.01 1h6.99a2.006 2.006 0 0 1 2 2v1l-1 2v2a3.98 3.98 0 0 1 -2 3.46v2.54a5.956 5.956 0 0 1 2.12.39 5.325 5.325 0 0 1 1.54.87 6.073 6.073 0 0 1 5.34-3.26v-2.54a3.98 3.98 0 0 1 -2-3.46z"/><path d="m14 35-1-2h2.01a47.642 47.642 0 0 0 .35 5h-.36l-1-1z"/><path d="m12.01 11a28.715 28.715 0 0 1 19.37-7.98c-5.52.34-10.37 5.16-13.33 12.4a28.851 28.851 0 0 1 -6.04-4.42z"/><path d="m24.06 59.9a.142.142 0 0 1 -.06-.02v-9.88a5.991 5.991 0 0 1 .66-2.74 5.325 5.325 0 0 0 -1.54-.87 5.956 5.956 0 0 0 -2.12-.39l-2 2-1.84-1.84-.16-.16a6 6 0 0 0 -6 5.99v5.01h3v4h11.5a1.482 1.482 0 0 1 -1.44-1.1z"/></g><path d="m62 32a29.991 29.991 0 0 0 -29.36-29.98c-.432-.02-.849-.02-1.279 0a29.991 29.991 0 0 0 -29.361 29.98 29.783 29.783 0 0 0 8 20.376v7.124a2.5 2.5 0 0 0 2.5 2.5h39a2.5 2.5 0 0 0 2.5-2.5v-7.124a29.783 29.783 0 0 0 8-20.376zm-13 19v9h-8v-10a6.937 6.937 0 0 0 -.418-2.368 4.821 4.821 0 0 1 2.035-.6l1.676 1.676a1 1 0 0 0 1.414 0l1.669-1.669a4.991 4.991 0 0 1 4.624 4.961v4h-1v-5zm-34 0h-2v5h-1v-4a4.991 4.991 0 0 1 4.624-4.962l1.669 1.669a1 1 0 0 0 1.414 0l1.676-1.676a4.821 4.821 0 0 1 2.035.6 6.937 6.937 0 0 0 -.418 2.369v10h-8zm31-5.414-1 1-1-1v-.686a5 5 0 0 0 2 0zm2-11.586a1 1 0 0 1 1 1v.764l-.388.776-2.057-1.372a1 1 0 0 0 -1.262.125l-1.707 1.707h-2.172l-.414-.414v-1.586a1 1 0 0 0 -.1-.447l-.282-.553zm-3 9a3 3 0 0 1 -3-3v-1h2a1 1 0 0 0 .707-.293l1.42-1.42 1.873 1.248v1.465a3 3 0 0 1 -3 3zm-6-11a1 1 0 0 0 -.9 1.447l.9 1.789v1.764a1 1 0 0 0 .293.707l.707.707v1.586a4.977 4.977 0 0 0 2 3.974v1.1a6.78 6.78 0 0 0 -2.353.8 7.005 7.005 0 0 0 -4.647-2.803v-1.1a4.977 4.977 0 0 0 2-3.971v-2.764l.9-1.789a1 1 0 0 0 .1-.447v-2a3 3 0 0 0 -3-3h-2v-8.024a29.846 29.846 0 0 0 12.416-3.138 43.857 43.857 0 0 1 2.584 15.162zm-6 11.586-1 1-1-1v-.686a5 5 0 0 0 2 0zm0-39.521c4.548.5 8.849 4.528 11.668 10.913a27.847 27.847 0 0 1 -11.668 3zm-2 0v13.911a27.847 27.847 0 0 1 -11.668-3c2.819-6.383 7.12-10.414 11.668-10.911zm4 25.935a1 1 0 0 1 1 1v1.764l-.388.776-2.057-1.372a1 1 0 0 0 -1.262.125l-1.707 1.707h-2.172l-.414-.414v-1.586a1 1 0 0 0 -.052-.316l-.56-1.684zm-4 6a1 1 0 0 0 .707-.293l1.42-1.42 1.873 1.248v2.465a3 3 0 0 1 -6 0v-2zm15.423-22a24.332 24.332 0 0 0 -6.248-8.784 27.725 27.725 0 0 1 10.332 5.784 27.907 27.907 0 0 1 -4.084 3zm-28.846 0a27.907 27.907 0 0 1 -4.084-3 27.679 27.679 0 0 1 10.326-5.78 24.33 24.33 0 0 0 -6.242 8.78zm13.423 5.976v8.024h-5a1 1 0 0 0 -.948 1.316l.948 2.846v1.838a1 1 0 0 0 .293.707l.707.707v2.586a4.977 4.977 0 0 0 2 3.974v1.1a7.005 7.005 0 0 0 -4.647 2.8 6.78 6.78 0 0 0 -2.353-.8v-1.1a4.977 4.977 0 0 0 2-3.974v-1.764l.895-1.789a1 1 0 0 0 .105-.447v-1a3 3 0 0 0 -3-3h-6a43.857 43.857 0 0 1 2.584-15.162 29.846 29.846 0 0 0 12.416 3.138zm-11 25.61-1 1-1-1v-.686a5 5 0 0 0 2 0zm3-9.822-.388.776-2.057-1.372a1 1 0 0 0 -1.262.125l-1.707 1.707h-2.172l-.414-.414v-1.586a1 1 0 0 0 -.105-.447l-.277-.553h7.382a1 1 0 0 1 1 1zm-5 3.236a1 1 0 0 0 .707-.293l1.42-1.42 1.873 1.248v1.465a3 3 0 0 1 -6 0v-1zm-6-6a1 1 0 0 0 .1.447l.9 1.789v1.764a1 1 0 0 0 .293.707l.707.707v1.586a4.977 4.977 0 0 0 2 3.974v1.1a7.018 7.018 0 0 0 -5.628 4.7 27.773 27.773 0 0 1 -6.348-16.774zm13 26.5v-1.5h1v1.5a.5.5 0 0 1 -1 0zm3-10.5h-2v7h-1v-6a4.991 4.991 0 0 1 4.624-4.962l1.669 1.669a1 1 0 0 0 1.414 0l1.669-1.669a4.991 4.991 0 0 1 4.624 4.962v6h-1v-7h-2v11h-8zm10 10.5v-1.5h1v1.5a.5.5 0 0 1 -1 0zm10-14.429v-1.1a4.977 4.977 0 0 0 2-3.971v-1.764l.9-1.789a1 1 0 0 0 .1-.447v-1a2.981 2.981 0 0 0 -.78-2h9.756a27.773 27.773 0 0 1 -6.348 16.768 7.018 7.018 0 0 0 -5.628-4.697zm11.975-14.071h-10a45.342 45.342 0 0 0 -2.789-15.126 29.9 29.9 0 0 0 4.769-3.493 27.64 27.64 0 0 1 8.02 18.619zm-47.933-18.619a29.9 29.9 0 0 0 4.769 3.493 45.342 45.342 0 0 0 -2.789 15.126h-10a27.644 27.644 0 0 1 8.02-18.619zm-.042 47.119v-1.5h1v1.5a.5.5 0 0 1 -1 0zm39.5.5a.5.5 0 0 1 -.5-.5v-1.5h1v1.5a.5.5 0 0 1 -.5.5z" fill="#3d9ae2"/></g></svg>